<svg width="163" height="129" viewBox="0 0 163 129" fill="none" xmlns="http://www.w3.org/2000/svg">
<path d="M87.6152 5.61988C93.7444 2.1352 101.256 2.1352 107.385 5.61989L144.11 26.4992C150.362 30.0541 154.225 36.6929 154.225 43.8857V85.1143C154.225 92.3071 150.362 98.9459 144.11 102.501L107.385 123.38C101.256 126.865 93.7444 126.865 87.6152 123.38L50.8905 102.501C44.6377 98.9459 40.7753 92.3071 40.7753 85.1143L40.7753 43.8857C40.7753 36.6929 44.6377 30.0541 50.8905 26.4992L87.6152 5.61988Z" fill="#019DD5"/>
<path d="M57.1016 19.8565L61.8765 11.8977C62.4196 10.9913 62.127 9.81722 61.2206 9.27414C60.3123 8.72915 59.1401 9.02173 58.597 9.93004L53.5582 18.3286C50.5579 17.2616 47.3453 16.6497 43.9836 16.6497C40.6219 16.6497 37.4093 17.2616 34.409 18.3286L29.3702 9.93004C28.8271 9.02173 27.653 8.73106 26.7466 9.27414C25.8402 9.81722 25.5476 10.9913 26.0907 11.8977L30.8656 19.8565C21.6352 24.6276 15.2999 34.2462 15.2999 45.3353C15.2999 46.3928 16.1566 47.2475 17.2121 47.2475H70.7551C71.8106 47.2475 72.6673 46.3928 72.6673 45.3353C72.6654 34.2481 66.332 24.6295 57.1016 19.8565ZM19.197 43.4231C20.1761 30.6053 30.9191 20.4761 43.9836 20.4761C57.0481 20.4761 67.7911 30.6053 68.7702 43.4231H19.197Z" fill="#464646"/>
<path d="M57.3253 30.7315H54.805C54.1089 30.7315 53.5448 31.2956 53.5448 31.9916V34.512C53.5448 35.208 54.1089 35.7722 54.805 35.7722H57.3273C58.0233 35.7722 58.5874 35.208 58.5874 34.512V31.9916C58.5874 31.2956 58.0214 30.7315 57.3253 30.7315Z" fill="#464646"/>
<path d="M33.1603 30.7315H30.638C29.942 30.7315 29.3779 31.2956 29.3779 31.9916V34.512C29.3779 35.208 29.942 35.7722 30.638 35.7722H33.1603C33.8563 35.7722 34.4205 35.208 34.4205 34.512V31.9916C34.4205 31.2956 33.8563 30.7315 33.1603 30.7315Z" fill="#464646"/>
<path d="M70.7531 49.1598H17.2102C16.1547 49.1598 15.298 50.0146 15.298 51.072V89.644C15.298 94.7363 19.4456 98.8782 24.5418 98.8782H26.7715V110.363C26.7715 114.574 30.202 118.001 34.4204 118.001C38.6389 118.001 42.0694 114.574 42.0694 110.363V98.8782H45.8939V110.363C45.8939 114.574 49.3245 118.001 53.5429 118.001C57.7613 118.001 61.1919 114.574 61.1919 110.363V98.8782H63.4216C68.5196 98.8782 72.6654 94.7363 72.6654 89.644V51.072C72.6654 50.0146 71.8106 49.1598 70.7531 49.1598ZM68.8409 89.644C68.8409 92.6271 66.4104 95.0537 63.4216 95.0537H59.2797C58.2241 95.0537 57.3674 95.9085 57.3674 96.966V110.363C57.3674 112.467 55.6521 114.176 53.5429 114.176C51.4337 114.176 49.7184 112.465 49.7184 110.363V96.966C49.7184 95.9085 48.8617 95.0537 47.8062 95.0537H40.1572C39.1016 95.0537 38.2449 95.9085 38.2449 96.966V110.363C38.2449 112.467 36.5297 114.176 34.4204 114.176C32.3112 114.176 30.596 112.465 30.596 110.363V96.966C30.596 95.9085 29.7393 95.0537 28.6837 95.0537H24.5437C21.5548 95.0537 19.1225 92.6252 19.1225 89.644V52.9843H68.8409V89.644Z" fill="#464646"/>
<path d="M81.2705 49.1598C77.5799 49.1598 74.5776 52.1658 74.5776 55.8603V82.6165C74.5776 86.3109 77.5799 89.317 81.2705 89.317C84.9611 89.317 87.9634 86.3109 87.9634 82.6165V55.8603C87.9634 52.1658 84.9611 49.1598 81.2705 49.1598ZM84.1389 82.6165C84.1389 84.2017 82.8519 85.4925 81.2705 85.4925C79.6891 85.4925 78.4021 84.2017 78.4021 82.6165V55.8603C78.4021 54.2751 79.6891 52.9843 81.2705 52.9843C82.8519 52.9843 84.1389 54.2751 84.1389 55.8603V82.6165Z" fill="#464646"/>
<path d="M6.69287 49.1598C3.00223 49.1598 0 52.1658 0 55.8603V82.6165C0 86.3109 3.00223 89.317 6.69287 89.317C10.3835 89.317 13.3857 86.3109 13.3857 82.6165V55.8603C13.3857 52.1658 10.3835 49.1598 6.69287 49.1598ZM9.56124 82.6165C9.56124 84.2017 8.27429 85.4925 6.69287 85.4925C5.11144 85.4925 3.82449 84.2017 3.82449 82.6165V55.8603C3.82449 54.2751 5.11144 52.9843 6.69287 52.9843C8.27429 52.9843 9.56124 54.2751 9.56124 55.8603V82.6165Z" fill="#464646"/>
</svg>
